# Blender v2.65 (sub 0) OBJ File: 'critter_body3.blend'
# www.blender.org
mtllib sphere-critter.mtl
o Cube
v 0.342075 -0.342075 -0.342075
v 0.342075 -0.342075 0.342075
v -0.342075 -0.342075 0.342075
v -0.342075 -0.342075 -0.342075
v 0.342075 0.342075 -0.342075
v 0.342074 0.342075 0.342075
v -0.342075 0.342075 0.342075
v -0.342075 0.342075 -0.342075
v 0.418954 -0.418954 0.000000
v 0.000000 -0.418954 -0.418954
v 0.418954 -0.000000 -0.418954
v -0.000000 -0.418954 0.418954
v 0.418954 -0.000000 0.418954
v -0.418954 -0.418954 -0.000000
v -0.418954 -0.000000 0.418954
v -0.418954 -0.000000 -0.418954
v 0.418954 0.418954 0.000000
v 0.000000 0.418954 -0.418954
v -0.000000 0.418954 0.418954
v -0.418954 0.418954 -0.000000
v 0.000000 -0.592491 -0.000000
v -0.000000 0.592491 0.000000
v 0.592491 -0.000000 0.000000
v -0.000000 -0.000000 0.592491
v -0.592491 -0.000000 -0.000000
v 0.000000 -0.000000 -0.592491
v 0.394994 -0.394994 0.197497
v -0.197497 -0.394994 -0.394994
v 0.394994 0.197497 -0.394994
v -0.197497 -0.394994 0.394994
v 0.394994 0.197497 0.394994
v -0.394994 -0.394994 -0.197497
v -0.394994 0.197497 0.394994
v -0.394994 0.197497 -0.394994
v 0.394994 0.394994 0.197497
v -0.197497 0.394994 -0.394994
v -0.197497 0.394994 0.394994
v -0.394994 0.394994 -0.197497
v 0.394994 -0.394994 -0.197497
v 0.197497 -0.394994 -0.394994
v 0.394994 -0.197497 -0.394994
v 0.197497 -0.394994 0.394994
v 0.394994 -0.197497 0.394994
v -0.394994 -0.394994 0.197497
v -0.394994 -0.197497 0.394994
v -0.394994 -0.197497 -0.394994
v 0.394994 0.394994 -0.197497
v 0.197497 0.394994 -0.394994
v 0.197497 0.394994 0.394994
v -0.394994 0.394994 0.197497
v -0.264970 -0.529940 -0.000000
v 0.264970 -0.529940 -0.000000
v 0.000000 -0.529940 -0.264970
v -0.000000 -0.529940 0.264970
v -0.000000 0.529940 0.264970
v 0.000000 0.529940 -0.264970
v 0.264970 0.529940 0.000000
v -0.264970 0.529940 0.000000
v 0.529940 -0.000000 0.264970
v 0.529940 -0.000000 -0.264970
v 0.529940 -0.264970 0.000000
v 0.529940 0.264970 0.000000
v -0.264970 -0.000000 0.529940
v 0.264970 -0.000000 0.529940
v -0.000000 -0.264970 0.529940
v -0.000000 0.264970 0.529940
v -0.529940 -0.000000 -0.264970
v -0.529940 -0.000000 0.264970
v -0.529940 -0.264970 -0.000000
v -0.529940 0.264970 -0.000000
v -0.264970 -0.000000 -0.529940
v 0.264970 -0.000000 -0.529940
v 0.000000 0.264970 -0.529940
v 0.000000 -0.264970 -0.529940
v -0.241883 -0.483767 0.241883
v -0.241884 0.483767 0.241883
v 0.483767 0.241883 0.241884
v -0.241884 0.241883 0.483767
v -0.483767 0.241883 -0.241883
v -0.241883 -0.241883 -0.483767
v -0.241883 -0.483767 -0.241883
v 0.241883 -0.483767 -0.241883
v 0.241883 -0.483767 0.241883
v 0.241883 0.483767 0.241884
v 0.241883 0.483767 -0.241883
v -0.241883 0.483767 -0.241883
v 0.483767 -0.241883 0.241883
v 0.483767 -0.241883 -0.241883
v 0.483767 0.241883 -0.241883
v -0.241883 -0.241883 0.483767
v 0.241883 -0.241883 0.483767
v 0.241883 0.241883 0.483767
v -0.483767 -0.241883 -0.241883
v -0.483767 -0.241883 0.241883
v -0.483767 0.241883 0.241883
v -0.241883 0.241883 -0.483767
v 0.241883 0.241883 -0.483767
v 0.241883 -0.241883 -0.483767
vt 0.345850 0.684666
vt 0.358504 0.729492
vt 0.311457 0.731793
vt 0.293027 0.682825
vt 0.341882 0.108938
vt 0.287869 0.117332
vt 0.298792 0.066997
vt 0.348812 0.054736
vt 0.560255 0.887707
vt 0.564942 0.940676
vt 0.515212 0.925269
vt 0.513521 0.877845
vt 0.342836 0.890445
vt 0.343991 0.943046
vt 0.295481 0.923992
vt 0.297724 0.876589
vt 0.118010 0.880779
vt 0.122442 0.935198
vt 0.073067 0.920625
vt 0.064533 0.869861
vt 0.345924 0.464483
vt 0.357667 0.510901
vt 0.310017 0.510723
vt 0.292911 0.461501
vt 0.345564 0.557165
vt 0.339855 0.621152
vt 0.286645 0.621348
vt 0.292584 0.559840
vt 0.469435 0.557897
vt 0.474388 0.621946
vt 0.407124 0.621194
vt 0.407506 0.556528
vt 0.467645 0.685383
vt 0.454465 0.730055
vt 0.406488 0.729267
vt 0.406746 0.685280
vt 0.478450 0.109753
vt 0.410194 0.104602
vt 0.410520 0.050078
vt 0.472167 0.055473
vt 0.472506 0.243205
vt 0.409367 0.243214
vt 0.409771 0.175561
vt 0.480338 0.177811
vt 0.346233 0.242452
vt 0.292902 0.240527
vt 0.285052 0.179171
vt 0.339182 0.176969
vt 0.551640 0.763426
vt 0.555983 0.825494
vt 0.510935 0.828480
vt 0.507353 0.779840
vt 0.683566 0.748211
vt 0.693174 0.815831
vt 0.622736 0.820807
vt 0.615740 0.750960
vt 0.693160 0.884125
vt 0.688095 0.938483
vt 0.626587 0.944988
vt 0.625613 0.890954
vt 0.349485 0.773090
vt 0.344579 0.830311
vt 0.300884 0.827255
vt 0.305034 0.778657
vt 0.462973 0.773754
vt 0.467209 0.831027
vt 0.405883 0.832686
vt 0.406238 0.771945
vt 0.468253 0.891175
vt 0.466486 0.943758
vt 0.405201 0.949922
vt 0.405507 0.897288
vt 0.129186 0.744974
vt 0.118791 0.812484
vt 0.064532 0.808021
vt 0.074633 0.747002
vt 0.260938 0.761726
vt 0.255871 0.823745
vt 0.189172 0.818280
vt 0.196982 0.748513
vt 0.250875 0.885908
vt 0.245572 0.938822
vt 0.183876 0.942418
vt 0.185478 0.888394
vt 0.346468 0.335834
vt 0.340528 0.400180
vt 0.287152 0.399970
vt 0.293397 0.338488
vt 0.471158 0.336576
vt 0.476332 0.400987
vt 0.408431 0.400506
vt 0.408819 0.335178
vt 0.470173 0.465220
vt 0.457881 0.511495
vt 0.407774 0.511162
vt 0.408044 0.465705
vt 0.505527 0.511881
vt 0.522378 0.561199
vt 0.527589 0.622770
vt 0.520483 0.684164
vt 0.501479 0.732908
vt 0.532358 0.118792
vt 0.522037 0.068331
vt 0.534436 0.180658
vt 0.525855 0.241916
vt 0.507413 0.290571
vt 0.459659 0.289845
vt 0.409092 0.289392
vt 0.358523 0.289242
vt 0.310763 0.289399
vt 0.548578 0.710328
vt 0.609058 0.697313
vt 0.670901 0.695085
vt 0.721934 0.701985
vt 0.738087 0.750874
vt 0.747475 0.812001
vt 0.746756 0.873831
vt 0.737633 0.924487
vt 0.142470 0.691993
vt 0.091355 0.698299
vt 0.204290 0.694942
vt 0.264620 0.708663
vt 0.524192 0.339861
vt 0.529706 0.401411
vt 0.523216 0.462868
vn -0.375591 -0.847224 0.375591
vn -0.321879 -0.669454 0.669454
vn -0.577349 -0.577349 0.577349
vn -0.669454 -0.669454 0.321879
vn -0.375591 0.847224 0.375591
vn -0.669454 0.669454 0.321879
vn -0.577349 0.577349 0.577349
vn -0.321879 0.669454 0.669454
vn 0.847224 0.375591 0.375591
vn 0.669454 0.669454 0.321879
vn 0.577349 0.577349 0.577349
vn 0.669454 0.321879 0.669454
vn -0.375591 0.375591 0.847224
vn -0.669454 0.321879 0.669454
vn -0.847224 0.375591 -0.375591
vn -0.669454 0.669454 -0.321879
vn -0.577349 0.577349 -0.577349
vn -0.669454 0.321879 -0.669454
vn -0.375591 -0.375591 -0.847224
vn -0.321879 -0.669454 -0.669454
vn -0.577349 -0.577349 -0.577349
vn -0.669454 -0.321879 -0.669454
vn -0.375591 -0.847224 -0.375591
vn -0.400403 -0.916318 0.000000
vn -0.707083 -0.707083 0.000000
vn -0.669454 -0.669454 -0.321879
vn 0.375591 -0.847224 -0.375591
vn 0.400403 -0.916318 0.000000
vn 0.000000 -1.000000 0.000000
vn 0.000000 -0.916318 -0.400403
vn 0.375591 -0.847224 0.375591
vn 0.321879 -0.669454 0.669454
vn 0.000000 -0.707083 0.707083
vn 0.000000 -0.916318 0.400403
vn 0.375591 0.847224 0.375591
vn 0.000000 0.916318 0.400403
vn 0.000000 0.707083 0.707083
vn 0.321879 0.669454 0.669454
vn 0.375591 0.847224 -0.375591
vn 0.000000 0.916318 -0.400403
vn 0.000000 1.000000 0.000000
vn 0.400403 0.916318 0.000000
vn -0.375591 0.847224 -0.375591
vn -0.707083 0.707083 0.000000
vn -0.400403 0.916318 0.000000
vn 0.847224 -0.375591 0.375591
vn 0.916318 0.000000 0.400403
vn 0.707083 0.000000 0.707083
vn 0.669454 -0.321879 0.669454
vn 0.847224 -0.375591 -0.375591
vn 0.916318 0.000000 -0.400403
vn 1.000000 0.000000 0.000000
vn 0.916318 -0.400403 0.000000
vn 0.847224 0.375591 -0.375591
vn 0.669454 0.669454 -0.321879
vn 0.707083 0.707083 0.000000
vn 0.916318 0.400403 0.000000
vn -0.375591 -0.375591 0.847224
vn -0.400403 0.000000 0.916318
vn -0.707083 0.000000 0.707083
vn -0.669454 -0.321879 0.669454
vn 0.375591 -0.375591 0.847224
vn 0.400403 0.000000 0.916318
vn 0.000000 0.000000 1.000000
vn 0.000000 -0.400403 0.916318
vn 0.375591 0.375591 0.847224
vn 0.000000 0.400403 0.916318
vn -0.847224 -0.375591 -0.375591
vn -0.916318 0.000000 -0.400403
vn -0.707083 0.000000 -0.707083
vn -0.847224 -0.375591 0.375591
vn -0.916318 0.000000 0.400403
vn -1.000000 0.000000 0.000000
vn -0.916318 -0.400403 0.000000
vn -0.847224 0.375591 0.375591
vn -0.916318 0.400403 0.000000
vn -0.375591 0.375591 -0.847224
vn -0.400403 0.000000 -0.916318
vn 0.375591 0.375591 -0.847224
vn 0.400403 0.000000 -0.916318
vn 0.000000 0.000000 -1.000000
vn 0.000000 0.400403 -0.916318
vn 0.375591 -0.375591 -0.847224
vn 0.321879 -0.669454 -0.669454
vn 0.000000 -0.707083 -0.707083
vn 0.000000 -0.400403 -0.916318
vn 0.577349 -0.577349 -0.577349
vn 0.669454 -0.669454 -0.321879
vn 0.707083 -0.707083 0.000000
vn 0.669454 -0.669454 0.321879
vn 0.577349 -0.577349 0.577349
vn 0.577349 0.577349 -0.577349
vn 0.321879 0.669454 -0.669454
vn 0.000000 0.707083 -0.707083
vn -0.321879 0.669454 -0.669454
vn 0.669454 -0.321879 -0.669454
vn 0.707083 0.000000 -0.707083
vn 0.669454 0.321879 -0.669454
g Cube_Cube_Material
usemtl Material
s 1
f 75/1/1 30/2/2 3/3/3
f 75/1/1 3/3/3 44/4/4
f 76/5/5 50/6/6 7/7/7
f 76/5/5 7/7/7 37/8/8
f 77/9/9 35/10/10 6/11/11
f 77/9/9 6/11/11 31/12/12
f 78/13/13 37/14/8 7/15/7
f 78/13/13 7/15/7 33/16/14
f 79/17/15 38/18/16 8/19/17
f 79/17/15 8/19/17 34/20/18
f 80/21/19 28/22/20 4/23/21
f 80/21/19 4/23/21 46/24/22
f 81/25/23 51/26/24 14/27/25
f 81/25/23 14/27/25 32/28/26
f 82/29/27 52/30/28 21/31/29
f 82/29/27 21/31/29 53/32/30
f 83/33/31 42/34/32 12/35/33
f 83/33/31 12/35/33 54/36/34
f 84/37/35 55/38/36 19/39/37
f 84/37/35 19/39/37 49/40/38
f 85/41/39 56/42/40 22/43/41
f 85/41/39 22/43/41 57/44/42
f 86/45/43 38/46/16 20/47/44
f 86/45/43 20/47/44 58/48/45
f 87/49/46 59/50/47 13/51/48
f 87/49/46 13/51/48 43/52/49
f 88/53/50 60/54/51 23/55/52
f 88/53/50 23/55/52 61/56/53
f 89/57/54 47/58/55 17/59/56
f 89/57/54 17/59/56 62/60/57
f 90/61/58 63/62/59 15/63/60
f 90/61/58 15/63/60 45/64/61
f 91/65/62 64/66/63 24/67/64
f 91/65/62 24/67/64 65/68/65
f 92/69/66 49/70/38 19/71/37
f 92/69/66 19/71/37 66/72/67
f 93/73/68 67/74/69 16/75/70
f 93/73/68 16/75/70 46/76/22
f 94/77/71 68/78/72 25/79/73
f 94/77/71 25/79/73 69/80/74
f 95/81/75 50/82/6 20/83/44
f 95/81/75 20/83/44 70/84/76
f 96/85/77 71/86/78 16/87/70
f 96/85/77 16/87/70 34/88/18
f 97/89/79 72/90/80 26/91/81
f 97/89/79 26/91/81 73/92/82
f 98/93/83 40/94/84 10/95/85
f 98/93/83 10/95/85 74/96/86
f 51/26/24 75/1/1 44/4/4
f 51/26/24 44/4/4 14/27/25
f 21/31/29 54/36/34 75/1/1
f 21/31/29 75/1/1 51/26/24
f 54/36/34 12/35/33 30/2/2
f 54/36/34 30/2/2 75/1/1
f 55/38/36 76/5/5 37/8/8
f 55/38/36 37/8/8 19/39/37
f 22/43/41 58/48/45 76/5/5
f 22/43/41 76/5/5 55/38/36
f 58/48/45 20/47/44 50/6/6
f 58/48/45 50/6/6 76/5/5
f 59/50/47 77/9/9 31/12/12
f 59/50/47 31/12/12 13/51/48
f 23/55/52 62/60/57 77/9/9
f 23/55/52 77/9/9 59/50/47
f 62/60/57 17/59/56 35/10/10
f 62/60/57 35/10/10 77/9/9
f 63/62/59 78/13/13 33/16/14
f 63/62/59 33/16/14 15/63/60
f 24/67/64 66/72/67 78/13/13
f 24/67/64 78/13/13 63/62/59
f 66/72/67 19/71/37 37/14/8
f 66/72/67 37/14/8 78/13/13
f 67/74/69 79/17/15 34/20/18
f 67/74/69 34/20/18 16/75/70
f 25/79/73 70/84/76 79/17/15
f 25/79/73 79/17/15 67/74/69
f 70/84/76 20/83/44 38/18/16
f 70/84/76 38/18/16 79/17/15
f 71/86/78 80/21/19 46/24/22
f 71/86/78 46/24/22 16/87/70
f 26/91/81 74/96/86 80/21/19
f 26/91/81 80/21/19 71/86/78
f 74/96/86 10/95/85 28/22/20
f 74/96/86 28/22/20 80/21/19
f 28/22/20 81/25/23 32/28/26
f 28/22/20 32/28/26 4/23/21
f 10/95/85 53/32/30 81/25/23
f 10/95/85 81/25/23 28/22/20
f 53/32/30 21/31/29 51/26/24
f 53/32/30 51/26/24 81/25/23
f 40/94/84 82/29/27 53/32/30
f 40/94/84 53/32/30 10/95/85
f 1/97/87 39/98/88 82/29/27
f 1/97/87 82/29/27 40/94/84
f 39/98/88 9/99/89 52/30/28
f 39/98/88 52/30/28 82/29/27
f 52/30/28 83/33/31 54/36/34
f 52/30/28 54/36/34 21/31/29
f 9/99/89 27/100/90 83/33/31
f 9/99/89 83/33/31 52/30/28
f 27/100/90 2/101/91 42/34/32
f 27/100/90 42/34/32 83/33/31
f 35/102/10 84/37/35 49/40/38
f 35/102/10 49/40/38 6/103/11
f 17/104/56 57/44/42 84/37/35
f 17/104/56 84/37/35 35/102/10
f 57/44/42 22/43/41 55/38/36
f 57/44/42 55/38/36 84/37/35
f 47/105/55 85/41/39 57/44/42
f 47/105/55 57/44/42 17/104/56
f 5/106/92 48/107/93 85/41/39
f 5/106/92 85/41/39 47/105/55
f 48/107/93 18/108/94 56/42/40
f 48/107/93 56/42/40 85/41/39
f 56/42/40 86/45/43 58/48/45
f 56/42/40 58/48/45 22/43/41
f 18/108/94 36/109/95 86/45/43
f 18/108/94 86/45/43 56/42/40
f 36/109/95 8/110/17 38/46/16
f 36/109/95 38/46/16 86/45/43
f 27/111/90 87/49/46 43/52/49
f 27/111/90 43/52/49 2/101/91
f 9/112/89 61/56/53 87/49/46
f 9/112/89 87/49/46 27/111/90
f 61/56/53 23/55/52 59/50/47
f 61/56/53 59/50/47 87/49/46
f 39/113/88 88/53/50 61/56/53
f 39/113/88 61/56/53 9/112/89
f 1/114/87 41/115/96 88/53/50
f 1/114/87 88/53/50 39/113/88
f 41/115/96 11/116/97 60/54/51
f 41/115/96 60/54/51 88/53/50
f 60/54/51 89/57/54 62/60/57
f 60/54/51 62/60/57 23/55/52
f 11/116/97 29/117/98 89/57/54
f 11/116/97 89/57/54 60/54/51
f 29/117/98 5/118/92 47/58/55
f 29/117/98 47/58/55 89/57/54
f 30/2/2 90/61/58 45/64/61
f 30/2/2 45/64/61 3/3/3
f 12/35/33 65/68/65 90/61/58
f 12/35/33 90/61/58 30/2/2
f 65/68/65 24/67/64 63/62/59
f 65/68/65 63/62/59 90/61/58
f 42/34/32 91/65/62 65/68/65
f 42/34/32 65/68/65 12/35/33
f 2/101/91 43/52/49 91/65/62
f 2/101/91 91/65/62 42/34/32
f 43/52/49 13/51/48 64/66/63
f 43/52/49 64/66/63 91/65/62
f 64/66/63 92/69/66 66/72/67
f 64/66/63 66/72/67 24/67/64
f 13/51/48 31/12/12 92/69/66
f 13/51/48 92/69/66 64/66/63
f 31/12/12 6/11/11 49/70/38
f 31/12/12 49/70/38 92/69/66
f 32/119/26 93/73/68 46/76/22
f 32/119/26 46/76/22 4/120/21
f 14/121/25 69/80/74 93/73/68
f 14/121/25 93/73/68 32/119/26
f 69/80/74 25/79/73 67/74/69
f 69/80/74 67/74/69 93/73/68
f 44/122/4 94/77/71 69/80/74
f 44/122/4 69/80/74 14/121/25
f 3/3/3 45/64/61 94/77/71
f 3/3/3 94/77/71 44/122/4
f 45/64/61 15/63/60 68/78/72
f 45/64/61 68/78/72 94/77/71
f 68/78/72 95/81/75 70/84/76
f 68/78/72 70/84/76 25/79/73
f 15/63/60 33/16/14 95/81/75
f 15/63/60 95/81/75 68/78/72
f 33/16/14 7/15/7 50/82/6
f 33/16/14 50/82/6 95/81/75
f 36/109/95 96/85/77 34/88/18
f 36/109/95 34/88/18 8/110/17
f 18/108/94 73/92/82 96/85/77
f 18/108/94 96/85/77 36/109/95
f 73/92/82 26/91/81 71/86/78
f 73/92/82 71/86/78 96/85/77
f 48/107/93 97/89/79 73/92/82
f 48/107/93 73/92/82 18/108/94
f 5/106/92 29/123/98 97/89/79
f 5/106/92 97/89/79 48/107/93
f 29/123/98 11/124/97 72/90/80
f 29/123/98 72/90/80 97/89/79
f 72/90/80 98/93/83 74/96/86
f 72/90/80 74/96/86 26/91/81
f 11/124/97 41/125/96 98/93/83
f 11/124/97 98/93/83 72/90/80
f 41/125/96 1/97/87 40/94/84
f 41/125/96 40/94/84 98/93/83
